<svg xmlns="http://www.w3.org/2000/svg" xmlns:xlink="http://www.w3.org/1999/xlink" width="500" zoomAndPan="magnify" viewBox="0 0 375 374.999991" height="500" preserveAspectRatio="xMidYMid meet" version="1.0"><defs><clipPath id="id1"><path d="M 69 69.1875 L 306 69.1875 L 306 306.1875 L 69 306.1875 Z M 69 69.1875 " clip-rule="nonzero"/></clipPath></defs><g clip-path="url(#id1)"><path fill="#b3c760" d="M 196.453125 176.476562 C 155.75 144.519531 125.949219 152.328125 114.59375 132.292969 C 114.59375 132.292969 113.683594 128.765625 110.957031 130.019531 C 108.226562 131.273438 87.964844 191.300781 130.722656 234.570312 C 130.722656 234.570312 158.261719 265.277344 199.207031 259.351562 C 199.207031 259.351562 203.75 258.4375 203.980469 255.027344 C 204.207031 251.613281 183.949219 207.234375 157.550781 190.375 C 155.214844 188.578125 158.816406 186.277344 161.828125 187.140625 C 178.484375 192.058594 237.105469 253.117188 204.21875 290.515625 C 186.589844 310.554688 128.9375 287.375 106.570312 263.328125 C 105.375 262.046875 104.210938 260.734375 103.078125 259.394531 C 101.945312 258.058594 100.84375 256.691406 99.773438 255.300781 C 98.707031 253.910156 97.671875 252.496094 96.667969 251.054688 C 95.667969 249.617188 94.703125 248.152344 93.769531 246.667969 C 92.835938 245.183594 91.941406 243.675781 91.082031 242.144531 C 90.21875 240.617188 89.394531 239.070312 88.609375 237.5 C 87.820312 235.933594 87.070312 234.347656 86.359375 232.746094 C 85.648438 231.140625 84.976562 229.523438 84.339844 227.886719 C 83.703125 226.25 83.109375 224.601562 82.550781 222.9375 C 81.996094 221.273438 81.476562 219.597656 81 217.910156 C 80.523438 216.222656 80.085938 214.523438 79.6875 212.8125 C 79.292969 211.105469 78.933594 209.386719 78.621094 207.660156 C 78.304688 205.933594 78.03125 204.203125 77.796875 202.460938 C 77.5625 200.722656 77.371094 198.980469 77.21875 197.230469 C 77.070312 195.484375 76.960938 193.730469 76.894531 191.980469 C 76.824219 190.226562 76.800781 188.472656 76.816406 186.714844 C 76.832031 184.960938 76.886719 183.207031 76.984375 181.457031 C 77.085938 179.703125 77.226562 177.957031 77.40625 176.210938 C 77.589844 174.464844 77.8125 172.726562 78.074219 170.992188 C 78.339844 169.253906 78.644531 167.527344 78.992188 165.808594 C 79.335938 164.085938 79.722656 162.375 80.152344 160.675781 C 80.578125 158.972656 81.042969 157.28125 81.550781 155.601562 C 82.058594 153.921875 82.605469 152.257812 83.191406 150.601562 C 83.777344 148.949219 84.40625 147.308594 85.070312 145.6875 C 85.734375 144.0625 86.433594 142.457031 87.175781 140.863281 C 87.914062 139.273438 88.691406 137.703125 89.507812 136.148438 C 90.324219 134.59375 91.171875 133.0625 92.0625 131.550781 C 92.949219 130.035156 93.871094 128.546875 94.828125 127.078125 C 95.789062 125.605469 96.78125 124.160156 97.808594 122.738281 C 98.835938 121.316406 99.894531 119.921875 100.988281 118.550781 C 102.082031 117.179688 103.203125 115.832031 104.363281 114.515625 C 105.519531 113.199219 106.707031 111.90625 107.925781 110.648438 C 109.140625 109.386719 110.390625 108.152344 111.664062 106.953125 C 112.941406 105.75 114.246094 104.578125 115.578125 103.4375 C 116.910156 102.296875 118.265625 101.191406 119.652344 100.113281 C 121.035156 99.039062 122.445312 97.996094 123.878906 96.988281 C 125.3125 95.980469 126.769531 95.007812 128.25 94.066406 C 129.730469 93.128906 131.230469 92.222656 132.753906 91.355469 C 134.277344 90.488281 135.820312 89.65625 137.382812 88.863281 C 138.945312 88.070312 140.523438 87.3125 142.121094 86.59375 C 143.71875 85.875 145.335938 85.191406 146.964844 84.550781 C 148.59375 83.910156 150.238281 83.304688 151.898438 82.742188 C 153.558594 82.175781 155.230469 81.652344 156.914062 81.167969 C 158.597656 80.683594 160.292969 80.238281 161.996094 79.835938 C 163.703125 79.429688 165.414062 79.066406 167.136719 78.746094 C 168.859375 78.421875 170.589844 78.140625 172.324219 77.898438 C 174.058594 77.660156 175.800781 77.460938 177.542969 77.304688 C 179.289062 77.144531 181.039062 77.03125 182.789062 76.957031 C 184.539062 76.882812 186.289062 76.847656 188.042969 76.855469 C 189.792969 76.867188 191.542969 76.917969 193.292969 77.007812 C 195.042969 77.101562 196.789062 77.234375 198.53125 77.410156 C 200.277344 77.585938 202.015625 77.800781 203.746094 78.058594 C 205.480469 78.316406 207.207031 78.617188 208.925781 78.957031 C 210.644531 79.296875 212.355469 79.675781 214.054688 80.097656 C 215.753906 80.519531 217.445312 80.980469 219.125 81.484375 C 220.804688 81.984375 222.46875 82.527344 224.121094 83.109375 C 225.773438 83.6875 227.414062 84.308594 229.039062 84.96875 C 230.660156 85.625 232.269531 86.324219 233.859375 87.058594 C 235.449219 87.792969 237.023438 88.566406 238.578125 89.378906 C 240.132812 90.1875 241.664062 91.035156 243.179688 91.917969 C 244.691406 92.800781 246.183594 93.71875 247.65625 94.671875 C 249.125 95.628906 250.574219 96.617188 251.996094 97.640625 C 253.417969 98.660156 254.816406 99.71875 256.191406 100.808594 C 257.566406 101.898438 258.910156 103.019531 260.230469 104.171875 C 261.550781 105.324219 262.84375 106.511719 264.109375 107.726562 C 265.371094 108.941406 266.609375 110.183594 267.8125 111.457031 C 269.019531 112.730469 270.191406 114.035156 271.335938 115.363281 C 272.480469 116.691406 273.589844 118.050781 274.667969 119.433594 C 275.746094 120.8125 276.792969 122.222656 277.804688 123.652344 C 278.820312 125.085938 279.796875 126.542969 280.738281 128.019531 C 281.683594 129.5 282.589844 131 283.460938 132.519531 C 284.335938 134.042969 285.171875 135.585938 285.96875 137.148438 C 286.769531 138.707031 287.53125 140.289062 288.253906 141.886719 C 288.980469 143.484375 289.664062 145.097656 290.3125 146.726562 C 290.960938 148.359375 291.570312 150.003906 292.136719 151.664062 C 292.707031 153.324219 293.238281 154.996094 293.726562 156.679688 C 294.21875 158.363281 294.667969 160.058594 295.078125 161.765625 C 295.488281 163.472656 295.859375 165.1875 296.1875 166.910156 C 296.515625 168.632812 296.800781 170.363281 297.050781 172.101562 C 297.296875 173.839844 297.5 175.582031 297.664062 177.328125 C 297.828125 179.074219 297.949219 180.824219 298.03125 182.578125 C 298.113281 184.332031 298.152344 186.085938 298.148438 187.839844 C 298.148438 189.59375 298.105469 191.347656 298.019531 193.101562 C 297.933594 194.855469 297.804688 196.605469 297.636719 198.351562 C 297.46875 200.097656 297.261719 201.839844 297.007812 203.574219 C 296.757812 205.3125 296.464844 207.042969 296.132812 208.765625 C 295.800781 210.488281 295.425781 212.203125 295.011719 213.90625 C 294.597656 215.613281 294.144531 217.304688 293.648438 218.988281 C 293.15625 220.671875 292.621094 222.34375 292.046875 224 C 291.472656 225.660156 290.859375 227.304688 290.210938 228.933594 C 289.558594 230.5625 288.867188 232.171875 288.140625 233.769531 C 287.410156 235.367188 286.644531 236.945312 285.84375 238.503906 C 285.039062 240.0625 284.199219 241.601562 283.324219 243.121094 C 282.449219 244.640625 281.535156 246.140625 280.589844 247.617188 C 279.644531 249.09375 278.660156 250.546875 277.644531 251.976562 C 276.628906 253.40625 275.582031 254.808594 274.496094 256.191406 C 274.175781 256.601562 273.945312 257.058594 273.804688 257.5625 C 273.664062 258.066406 273.625 258.578125 273.6875 259.097656 C 273.75 259.617188 273.910156 260.105469 274.167969 260.5625 C 274.421875 261.015625 274.757812 261.40625 275.167969 261.730469 C 275.578125 262.050781 276.035156 262.285156 276.539062 262.425781 C 277.042969 262.566406 277.554688 262.605469 278.070312 262.542969 C 278.589844 262.480469 279.078125 262.320312 279.53125 262.0625 C 279.988281 261.808594 280.378906 261.472656 280.699219 261.0625 C 282.046875 259.339844 283.347656 257.585938 284.597656 255.792969 C 285.847656 254 287.050781 252.171875 288.199219 250.316406 C 289.351562 248.457031 290.449219 246.566406 291.492188 244.644531 C 292.539062 242.726562 293.53125 240.777344 294.46875 238.804688 C 295.40625 236.828125 296.292969 234.832031 297.117188 232.808594 C 297.945312 230.78125 298.71875 228.738281 299.433594 226.671875 C 300.148438 224.605469 300.804688 222.519531 301.40625 220.417969 C 302.003906 218.316406 302.546875 216.195312 303.03125 214.0625 C 303.511719 211.929688 303.9375 209.785156 304.300781 207.628906 C 304.664062 205.472656 304.96875 203.308594 305.214844 201.136719 C 305.460938 198.964844 305.644531 196.785156 305.769531 194.601562 C 305.894531 192.417969 305.960938 190.234375 305.964844 188.046875 C 305.96875 185.859375 305.910156 183.671875 305.796875 181.488281 C 305.679688 179.304688 305.503906 177.125 305.265625 174.953125 C 305.027344 172.777344 304.730469 170.613281 304.375 168.453125 C 304.019531 166.296875 303.601562 164.152344 303.128906 162.015625 C 302.652344 159.882812 302.121094 157.761719 301.527344 155.65625 C 300.9375 153.550781 300.285156 151.464844 299.578125 149.394531 C 298.871094 147.324219 298.109375 145.277344 297.289062 143.25 C 296.46875 141.222656 295.59375 139.222656 294.660156 137.242188 C 293.730469 135.265625 292.746094 133.3125 291.707031 131.390625 C 290.667969 129.464844 289.578125 127.574219 288.433594 125.710938 C 287.292969 123.847656 286.097656 122.015625 284.855469 120.21875 C 283.609375 118.421875 282.316406 116.660156 280.976562 114.933594 C 279.636719 113.207031 278.246094 111.519531 276.8125 109.871094 C 275.378906 108.222656 273.898438 106.617188 272.375 105.046875 C 270.851562 103.480469 269.285156 101.957031 267.679688 100.476562 C 266.070312 98.996094 264.425781 97.5625 262.738281 96.175781 C 261.050781 94.785156 259.328125 93.445312 257.566406 92.152344 C 255.808594 90.855469 254.011719 89.613281 252.183594 88.417969 C 250.351562 87.226562 248.492188 86.082031 246.601562 84.992188 C 244.707031 83.902344 242.785156 82.863281 240.835938 81.878906 C 238.886719 80.894531 236.910156 79.964844 234.910156 79.089844 C 232.910156 78.214844 230.886719 77.394531 228.839844 76.628906 C 226.792969 75.867188 224.726562 75.160156 222.640625 74.511719 C 220.558594 73.863281 218.457031 73.273438 216.335938 72.742188 C 214.21875 72.210938 212.089844 71.734375 209.945312 71.320312 C 207.800781 70.90625 205.648438 70.550781 203.484375 70.257812 C 201.320312 69.960938 199.148438 69.726562 196.972656 69.554688 C 194.796875 69.378906 192.617188 69.265625 190.433594 69.210938 C 188.25 69.15625 186.066406 69.160156 183.886719 69.230469 C 181.703125 69.296875 179.523438 69.421875 177.347656 69.609375 C 175.171875 69.796875 173.003906 70.046875 170.84375 70.351562 C 168.679688 70.660156 166.527344 71.027344 164.386719 71.453125 C 162.246094 71.882812 160.117188 72.367188 158.003906 72.910156 C 155.886719 73.457031 153.789062 74.058594 151.707031 74.71875 C 149.628906 75.378906 147.566406 76.097656 145.523438 76.875 C 143.480469 77.648438 141.464844 78.480469 139.46875 79.367188 C 137.472656 80.253906 135.5 81.195312 133.558594 82.191406 C 131.613281 83.1875 129.699219 84.234375 127.8125 85.335938 C 125.925781 86.441406 124.070312 87.59375 122.25 88.796875 C 120.425781 90.003906 118.640625 91.257812 116.886719 92.558594 C 115.132812 93.863281 113.417969 95.214844 111.738281 96.613281 C 110.058594 98.011719 108.421875 99.457031 106.824219 100.945312 C 105.222656 102.4375 103.667969 103.96875 102.152344 105.542969 C 100.640625 107.121094 99.167969 108.738281 97.746094 110.394531 C 96.320312 112.050781 94.941406 113.746094 93.609375 115.480469 C 92.277344 117.214844 90.996094 118.980469 89.761719 120.785156 C 88.527344 122.589844 87.347656 124.429688 86.214844 126.296875 C 85.082031 128.167969 84.003906 130.070312 82.976562 132 C 81.949219 133.929688 80.972656 135.886719 80.054688 137.867188 C 79.136719 139.851562 78.273438 141.859375 77.464844 143.890625 C 76.65625 145.921875 75.902344 147.976562 75.207031 150.050781 C 74.511719 152.121094 73.875 154.214844 73.296875 156.320312 C 72.714844 158.429688 72.195312 160.554688 71.730469 162.691406 C 71.269531 164.828125 70.867188 166.976562 70.523438 169.136719 C 70.179688 171.296875 69.894531 173.464844 69.671875 175.636719 C 69.445312 177.8125 69.28125 179.992188 69.179688 182.179688 C 69.074219 184.363281 69.03125 186.550781 69.046875 188.734375 C 69.066406 190.921875 69.140625 193.109375 69.28125 195.289062 C 69.417969 197.472656 69.613281 199.648438 69.871094 201.820312 C 70.128906 203.992188 70.445312 206.15625 70.824219 208.3125 C 71.203125 210.464844 71.636719 212.605469 72.132812 214.738281 C 72.628906 216.867188 73.183594 218.980469 73.792969 221.082031 C 74.40625 223.179688 75.074219 225.261719 75.800781 227.324219 C 76.53125 229.386719 77.3125 231.425781 78.152344 233.445312 C 78.992188 235.464844 79.886719 237.457031 80.835938 239.425781 C 81.785156 241.394531 82.789062 243.335938 83.847656 245.25 C 84.902344 247.164062 86.011719 249.046875 87.171875 250.898438 C 88.335938 252.753906 89.546875 254.570312 90.808594 256.355469 C 92.066406 258.140625 93.378906 259.890625 94.734375 261.605469 C 96.09375 263.316406 97.496094 264.988281 98.949219 266.625 C 100.398438 268.261719 101.890625 269.851562 103.429688 271.40625 C 104.96875 272.957031 106.546875 274.464844 108.171875 275.929688 C 109.792969 277.394531 111.453125 278.8125 113.152344 280.1875 C 114.851562 281.558594 116.589844 282.882812 118.363281 284.160156 C 120.132812 285.4375 121.941406 286.664062 123.78125 287.839844 C 125.621094 289.015625 127.496094 290.140625 129.398438 291.214844 C 131.300781 292.285156 133.230469 293.304688 135.191406 294.273438 C 137.148438 295.238281 139.132812 296.148438 141.144531 297.003906 C 143.152344 297.859375 145.183594 298.660156 147.238281 299.402344 C 149.289062 300.148438 151.363281 300.832031 153.453125 301.460938 C 155.546875 302.089844 157.652344 302.660156 159.777344 303.171875 C 161.898438 303.683594 164.035156 304.136719 166.183594 304.53125 C 168.328125 304.925781 170.488281 305.257812 172.652344 305.53125 C 174.820312 305.804688 176.992188 306.019531 179.171875 306.175781 C 179.378906 306.191406 179.585938 306.191406 179.796875 306.175781 C 243.015625 303.796875 237.164062 208.4375 196.453125 176.476562 Z M 196.453125 176.476562 " fill-opacity="1" fill-rule="evenodd"/></g><path fill="#293800" d="M 191.410156 167.386719 C 227.003906 143.777344 252.871094 148.792969 263.285156 130.433594 C 263.285156 130.433594 264.199219 126.898438 266.929688 128.148438 C 280.574219 134.410156 276.152344 237.65625 232.914062 237.65625 C 231.359375 221.023438 225.699219 204.214844 216.777344 190.960938 L 215.140625 188.628906 L 214.25 187.429688 C 226.09375 180.1875 237.082031 167.648438 236.882812 167.078125 C 236.652344 166.378906 235.882812 166.945312 235.882812 166.945312 C 229.296875 173.761719 219.191406 179.878906 211.480469 183.988281 C 208.800781 180.832031 205.839844 177.972656 202.59375 175.410156 C 198.78125 172.402344 195.042969 169.738281 191.410156 167.386719 Z M 191.410156 167.386719 " fill-opacity="1" fill-rule="evenodd"/><path fill="#b3c760" d="M 293.382812 224.925781 C 293.382812 224.925781 299.132812 220.605469 300.140625 213.695312 C 301.152344 206.785156 298.855469 176.550781 316.394531 162.445312 C 333.929688 148.339844 360.949219 147.1875 368.140625 134.519531 C 368.140625 134.519531 368.714844 132.289062 370.441406 133.074219 C 372.167969 133.863281 384.953125 171.804688 357.933594 199.15625 C 357.933594 199.15625 339.25 219.3125 313.378906 215.578125 C 313.378906 215.578125 310.511719 214.992188 310.359375 212.832031 C 310.203125 210.671875 324.296875 181.875 340.976562 171.222656 C 340.976562 171.222656 341.582031 170.753906 340.9375 170.402344 C 340.289062 170.050781 315.640625 186.164062 307.015625 212.65625 C 307.015625 212.65625 303.136719 222.582031 297.816406 226.472656 C 292.5 230.359375 291.851562 230.230469 291.335938 229.140625 C 290.820312 228.050781 289.550781 226.042969 293.382812 224.925781 Z M 293.382812 224.925781 " fill-opacity="1" fill-rule="evenodd"/><path fill="#b3c760" d="M 81.605469 224.925781 C 81.605469 224.925781 75.855469 220.605469 74.855469 213.695312 C 73.851562 206.785156 76.132812 176.550781 58.605469 162.445312 C 41.082031 148.339844 14.050781 147.1875 6.863281 134.519531 C 6.863281 134.519531 6.289062 132.289062 4.566406 133.074219 C 2.84375 133.863281 -9.949219 171.804688 17.066406 199.15625 C 17.066406 199.15625 35.753906 219.3125 61.625 215.578125 C 61.625 215.578125 64.492188 214.992188 64.644531 212.832031 C 64.800781 210.671875 50.703125 181.875 34.03125 171.222656 C 34.03125 171.222656 33.417969 170.753906 34.066406 170.402344 C 34.71875 170.050781 59.363281 186.164062 67.984375 212.65625 C 67.984375 212.65625 71.871094 222.582031 77.1875 226.472656 C 82.5 230.359375 83.152344 230.222656 83.65625 229.140625 C 84.15625 228.058594 85.449219 226.042969 81.605469 224.925781 Z M 81.605469 224.925781 " fill-opacity="1" fill-rule="evenodd"/></svg>